
<svg viewBox="85.703 200 228.594 96.797" width="228.594" height="96.797">
  <defs>
    <style data-bx-fonts="Archivo" data-bx-pinned="true">@import url(https://fonts.googleapis.com/css2?family=Archivo%3Aital%2Cwght%400%2C100%3B0%2C200%3B0%2C300%3B0%2C400%3B0%2C500%3B0%2C600%3B0%2C700%3B0%2C800%3B0%2C900%3B1%2C100%3B1%2C200%3B1%2C300%3B1%2C400%3B1%2C500%3B1%2C600%3B1%2C700%3B1%2C800%3B1%2C900&amp;display=swap);</style>
  </defs>
  <rect x="200" width="38.099" height="78.022" style="fill: rgb(216, 216, 216);" y="200"></rect>
  <rect x="238.099" width="38.099" height="78.022" style="fill: rgb(211, 6, 6);" y="200"></rect>
  <rect x="276.198" width="38.099" height="78.022" style="fill: rgb(216, 216, 216);" y="200"></rect>
  <rect x="161.901" width="38.099" height="78.022" style="fill: rgb(216, 216, 216);" y="200"></rect>
  <rect x="123.802" width="38.099" height="78.022" style="fill: rgb(211, 6, 6);" y="200"></rect>
  <rect x="85.703" width="38.099" height="78.022" style="fill: rgb(216, 216, 216); stroke-miterlimit: 1;" y="200"></rect>
  <text style="fill: rgb(211, 6, 6); font-family: Archivo; font-size: 36.078px; font-weight: 500; line-height: 55.3196px; white-space: pre;" transform="matrix(0.665219, 0, 0, 0.665225, 99.999999, 237.039731)">D</text>
  <text style="fill: rgb(211, 6, 6); font-family: Archivo; font-size: 36.078px; font-weight: 500; line-height: 55.3196px; white-space: pre;" transform="matrix(0.665219, 0, 0, 0.665225, 171.927137, 237.039731)">N</text>
  <text style="fill: rgb(211, 6, 6); font-family: Archivo; font-size: 36.078px; font-weight: 500; line-height: 55.3196px; white-space: pre;" transform="matrix(0.665219, 0, 0, 0.665225, 210.215375, 237.039731)">N</text>
  <text style="fill: rgb(211, 6, 6); font-family: Archivo; font-size: 36.078px; font-weight: 500; line-height: 55.3196px; white-space: pre;" transform="matrix(0.665219, 0, 0, 0.665225, 279.76144, 237.039731)">R</text>
  <circle style="fill: rgb(216, 216, 216);" transform="matrix(1.016949, 0, 0, 1.000008, -130.07028, -275.304043)" cx="230.909" cy="553.364" r="18.732"></circle>
  <circle style="fill: rgb(211, 6, 6);" transform="matrix(1.016949, 0, 0, 1.000008, -91.971305, -275.304043)" cx="230.909" cy="553.364" r="18.732"></circle>
  <circle style="fill: rgb(216, 216, 216);" transform="matrix(1.016949, 0, 0, 1.000008, -53.872325, -275.304043)" cx="230.909" cy="553.364" r="18.732"></circle>
  <circle style="fill: rgb(216, 216, 216);" transform="matrix(1.016949, 0, 0, 1.000008, -15.773346, -275.304043)" cx="230.909" cy="553.364" r="18.732"></circle>
  <circle style="fill: rgb(211, 6, 6);" transform="matrix(1.016949, 0, 0, 1.000008, 22.325636, -275.304043)" cx="230.909" cy="553.364" r="18.732"></circle>
  <circle style="fill: rgb(216, 216, 216);" transform="matrix(1.016957, 0, 0, 1.000008, 60.422824, -275.304043)" cx="230.909" cy="553.364" r="18.732"></circle>
</svg>