
<svg viewBox="85.703 259.332 228.594 37.465" width="228.594" height="37.465">
  <rect x="200" width="38.099" height="18.69" style="fill: rgb(216, 216, 216);" y="259.332"></rect>
  <rect x="238.099" width="38.099" height="18.69" style="fill: rgb(211, 6, 6);" y="259.332"></rect>
  <rect x="276.198" width="38.099" height="18.69" style="fill: rgb(216, 216, 216);" y="259.332"></rect>
  <rect x="161.901" width="38.099" height="18.69" style="fill: rgb(216, 216, 216);" y="259.332"></rect>
  <rect x="123.802" width="38.099" height="18.69" style="fill: rgb(211, 6, 6);" y="259.332"></rect>
  <rect x="85.703" width="38.099" height="18.69" style="fill: rgb(216, 216, 216); stroke-miterlimit: 1;" y="259.332"></rect>
  <circle style="fill: rgb(216, 216, 216);" transform="matrix(1.016949, 0, 0, 1.000008, -130.07028, -275.304043)" cx="230.909" cy="553.364" r="18.732"></circle>
  <circle style="fill: rgb(211, 6, 6);" transform="matrix(1.016949, 0, 0, 1.000008, -91.971305, -275.304043)" cx="230.909" cy="553.364" r="18.732"></circle>
  <circle style="fill: rgb(216, 216, 216);" transform="matrix(1.016949, 0, 0, 1.000008, -53.872325, -275.304043)" cx="230.909" cy="553.364" r="18.732"></circle>
  <circle style="fill: rgb(216, 216, 216);" transform="matrix(1.016949, 0, 0, 1.000008, -15.773346, -275.304043)" cx="230.909" cy="553.364" r="18.732"></circle>
  <circle style="fill: rgb(211, 6, 6);" transform="matrix(1.016949, 0, 0, 1.000008, 22.325636, -275.304043)" cx="230.909" cy="553.364" r="18.732"></circle>
  <circle style="fill: rgb(216, 216, 216);" transform="matrix(1.016957, 0, 0, 1.000008, 60.422824, -275.304043)" cx="230.909" cy="553.364" r="18.732"></circle>
</svg>